<svg id="Layer_1" data-name="Layer 1" xmlns="http://www.w3.org/2000/svg" viewBox="0 0 1134.88 141.66"><defs><style>.cls-1,.cls-2,.cls-4,.cls-5,.cls-6,.cls-8,.cls-9{fill:#444;}.cls-2,.cls-3,.cls-4,.cls-5,.cls-6,.cls-8,.cls-9{isolation:isolate;}.cls-10,.cls-2,.cls-4,.cls-5,.cls-6{font-size:16px;}.cls-10,.cls-2,.cls-4,.cls-5,.cls-6,.cls-8,.cls-9{font-family:SourceSansPro-Regular, Source Sans Pro;}.cls-4{letter-spacing:-0.04em;}.cls-5,.cls-9{letter-spacing:-0.02em;}.cls-6{letter-spacing:-0.01em;}.cls-7{fill:none;stroke:#444;stroke-miterlimit:10;}.cls-8,.cls-9{font-size:12px;}.cls-11{letter-spacing:-0.01em;}.cls-12{letter-spacing:-0.03em;}.cls-13{letter-spacing:0em;}</style></defs><title>designprocess</title><path class="cls-1" d="M101.81,58.18,91.87,48.11A18.37,18.37,0,0,0,94.33,39,18.59,18.59,0,1,0,75.74,57.6,18.29,18.29,0,0,0,85.13,55L95,65a1.24,1.24,0,0,0,.86.36,1.19,1.19,0,0,0,.86-.36l5.07-5.13A1.2,1.2,0,0,0,101.81,58.18ZM75.74,27.62A11.37,11.37,0,1,1,64.4,39v0A11.37,11.37,0,0,1,75.74,27.62Z"/><path class="cls-1" d="M286.22,32.6a2.7,2.7,0,0,0-.41-.71L276,21.14a2.71,2.71,0,0,0-.79-.57,2.39,2.39,0,0,0-1.11-.25H255.35a2.74,2.74,0,0,0-2.66,2.8V62.4a2.84,2.84,0,0,0,2.66,2.92h28.49a2.79,2.79,0,0,0,2.6-2.92V33.79A2.9,2.9,0,0,0,286.22,32.6Zm-27.9,1.1c0-.18.21-.25.4-.25H267c.19,0,.33.07.33.25V35a.36.36,0,0,1-.33.36h-8.3a.44.44,0,0,1-.4-.36Zm0,15c0-.18.21-.25.4-.25H273c.19,0,.28.07.28.25V50c0,.16-.08.36-.28.36H258.72a.44.44,0,0,1-.4-.36Zm18.75,8.77c0,.16-.08.36-.28.36H258.72a.44.44,0,0,1-.4-.36V56.2c0-.18.21-.25.4-.25h18.07c.19,0,.28.07.28.25Zm3.75-15c0,.16-.08.36-.28.36H258.72a.44.44,0,0,1-.4-.36V41.2c0-.18.21-.25.4-.25h21.82c.19,0,.28.07.28.25Zm-5.5-8.89a1.37,1.37,0,0,1-1.3-1.32V24.51l8.34,9.06Z"/><path class="cls-1" d="M467.35,42.31l.82,1.69a9.86,9.86,0,0,0,2.24-1.52l-1.24-1.4A8,8,0,0,1,467.35,42.31Z"/><path class="cls-1" d="M472.82,34.19a14.47,14.47,0,0,0-28.93,0,14.56,14.56,0,0,0,3,8.34h0a51.19,51.19,0,0,1,3.18,4.53,14.92,14.92,0,0,1,1.88,8.2v.14h3.21V42.54L452,36.11h1.67l3.15,6.43V55.39H460V42.54l3.15-6.43h1.66l-3.21,6.43V55.39h3.21v-.14a14.49,14.49,0,0,1,1.85-8.2,51.18,51.18,0,0,1,3.16-4.52h0A14.57,14.57,0,0,0,472.82,34.19Z"/><rect class="cls-1" x="455.14" y="63.43" width="6.43" height="1.61"/><rect class="cls-1" x="453.53" y="60.21" width="9.64" height="1.61"/><rect class="cls-1" x="453.53" y="57" width="9.64" height="1.61"/><rect class="cls-1" x="626.6" y="38.58" width="35.56" height="12.87" transform="translate(156.9 468.83) rotate(-45)"/><path class="cls-1" d="M667.36,26.86,662.53,22a3.15,3.15,0,0,0-4.45.19l-4.54,4.54,9.1,9.1,4.54-4.54A3.16,3.16,0,0,0,667.36,26.86Z"/><polygon class="cls-1" points="626.41 54.46 623.19 66.19 634.92 62.98 626.41 54.46"/><path class="cls-1" d="M871.74,20.21H821.89a1.33,1.33,0,0,0-1.32,1.3V52.65a1.32,1.32,0,0,0,1.32,1.3h49.85a1.33,1.33,0,0,0,1.32-1.3V21.51A1.33,1.33,0,0,0,871.74,20.21Zm-2.43,30h-45V24h45Z"/><path class="cls-1" d="M852.27,65.21c3.28-.06,4.86-.46,3.4-1.46s-3.34-1.79-3.4-2.64c0-.43-.2-5.27-.2-5.27h-10.5s-.18,4.84-.2,5.27c-.06.83-1.93,1.62-3.4,2.64s.12,1.41,3.4,1.46Z"/><text class="cls-2" transform="translate(39.19 93.3)">RESEARCH</text><g class="cls-3"><text class="cls-2" transform="translate(421.21 94.15)">IDE</text><text class="cls-4" transform="translate(443.48 94.15)">A</text><text class="cls-2" transform="translate(451.45 94.15)">TION + </text><text class="cls-2" transform="translate(419.79 113.35)">SKE</text><text class="cls-5" transform="translate(445.79 113.35)">T</text><text class="cls-2" transform="translate(453.9 113.35)">CHING</text></g><g class="cls-3"><text class="cls-2" transform="translate(597.71 93.3)">WIREF</text><text class="cls-6" transform="translate(639.73 93.3)">R</text><text class="cls-2" transform="translate(648.78 93.3)">AMING</text></g><text class="cls-2" transform="translate(819.14 93.3)">FINAL UI</text><line class="cls-7" x1="118.62" y1="42.54" x2="217.14" y2="42.54"/><line class="cls-7" x1="217.99" y1="42.54" x2="208.53" y2="33.07"/><line class="cls-7" x1="217.99" y1="42.54" x2="208.53" y2="52"/><line class="cls-7" x1="505.38" y1="42.69" x2="595.01" y2="42.69"/><line class="cls-7" x1="595.86" y1="42.69" x2="586.4" y2="33.22"/><line class="cls-7" x1="595.86" y1="42.69" x2="586.4" y2="52.15"/><line class="cls-7" x1="505.33" y1="42.69" x2="514.8" y2="33.22"/><line class="cls-7" x1="505.33" y1="42.69" x2="514.8" y2="52.15"/><line class="cls-7" x1="311.77" y1="42.54" x2="410.29" y2="42.54"/><line class="cls-7" x1="410.15" y1="42.54" x2="400.68" y2="33.07"/><line class="cls-7" x1="410.15" y1="42.54" x2="400.68" y2="52"/><line class="cls-7" x1="705.45" y1="43.7" x2="795.14" y2="43.7"/><line class="cls-7" x1="795.99" y1="43.7" x2="786.53" y2="34.23"/><line class="cls-7" x1="795.99" y1="43.7" x2="786.53" y2="53.17"/><line class="cls-7" x1="704.46" y1="43.7" x2="713.93" y2="34.23"/><line class="cls-7" x1="704.46" y1="43.7" x2="713.93" y2="53.17"/><g class="cls-3"><text class="cls-8" transform="translate(537.64 37.59)">TE</text><text class="cls-9" transform="translate(550.28 37.59)">S</text><text class="cls-8" transform="translate(556.38 37.59)">T</text></g><text class="cls-8" transform="translate(532.14 57.61)">REFINE</text><text class="cls-10" transform="translate(235.96 91.22)">PE<tspan class="cls-11" x="17.49" y="0">R</tspan><tspan x="26.48" y="0">SONA</tspan></text><line class="cls-7" x1="915.33" y1="44" x2="1005.02" y2="44"/><line class="cls-7" x1="1005.87" y1="44" x2="996.41" y2="34.53"/><line class="cls-7" x1="1005.87" y1="44" x2="996.41" y2="53.47"/><line class="cls-7" x1="914.34" y1="44" x2="923.81" y2="34.53"/><line class="cls-7" x1="914.34" y1="44" x2="923.81" y2="53.47"/><circle class="cls-1" cx="1051.78" cy="44.87" r="2.81"/><circle class="cls-1" cx="1060.22" cy="44.87" r="2.81"/><circle class="cls-1" cx="1068.65" cy="44.87" r="2.81"/><path class="cls-1" d="M1049.89,60.78a2.8,2.8,0,0,1-2-.82l-13.12-13.12a2.81,2.81,0,0,1,0-4l13.12-13.12a2.81,2.81,0,1,1,4,4l-11.13,11.13L1051.88,56a2.81,2.81,0,0,1-2,4.8Z"/><path class="cls-1" d="M1070.51,60.78a2.8,2.8,0,0,0,2-.82l13.12-13.12a2.81,2.81,0,0,0,0-4L1072.5,29.74a2.81,2.81,0,1,0-4,4l11.13,11.13L1068.52,56a2.81,2.81,0,0,0,2,4.8Z"/><text class="cls-2" transform="translate(1009.28 93.3)">DEVE<tspan class="cls-12" x="34.94" y="0">L</tspan><tspan class="cls-13" x="42.3" y="0">OPMENT</tspan></text></svg>