<svg id="Layer_1" data-name="Layer 1" xmlns="http://www.w3.org/2000/svg" viewBox="0 0 1134.88 141.66"><defs><style>.cls-1,.cls-14,.cls-2,.cls-6{fill:#444;}.cls-2,.cls-6{font-size:16px;}.cls-14,.cls-2,.cls-6{font-family:SourceSansPro-Regular, Source Sans Pro;}.cls-3{letter-spacing:-0.01em;}.cls-4{letter-spacing:-0.02em;}.cls-5{letter-spacing:-0.02em;}.cls-6{letter-spacing:-0.04em;}.cls-7{letter-spacing:0em;}.cls-8{letter-spacing:-0.03em;}.cls-9{letter-spacing:-0.01em;}.cls-10{letter-spacing:0em;}.cls-11{letter-spacing:-0.04em;}.cls-12{letter-spacing:-0.02em;}.cls-13{fill:none;stroke:#444;stroke-miterlimit:10;}.cls-14{font-size:12px;}.cls-15{letter-spacing:-0.02em;}</style></defs><title>DESIGNPROCESS-01</title><path class="cls-1" d="M101.81,58.18,91.87,48.11A18.37,18.37,0,0,0,94.33,39,18.59,18.59,0,1,0,75.74,57.6,18.29,18.29,0,0,0,85.13,55L95,65a1.24,1.24,0,0,0,.86.36,1.19,1.19,0,0,0,.86-.36l5.07-5.13A1.2,1.2,0,0,0,101.81,58.18ZM75.74,27.62A11.37,11.37,0,1,1,64.4,39,11.37,11.37,0,0,1,75.74,27.62Z"/><path class="cls-1" d="M286.22,32.6a2.7,2.7,0,0,0-.41-.71L276,21.14a2.71,2.71,0,0,0-.79-.57,2.39,2.39,0,0,0-1.11-.25H255.35a2.74,2.74,0,0,0-2.66,2.8V62.4a2.84,2.84,0,0,0,2.66,2.92h28.49a2.79,2.79,0,0,0,2.6-2.92V33.79A2.9,2.9,0,0,0,286.22,32.6Zm-27.9,1.1c0-.18.21-.25.4-.25H267c.19,0,.33.07.33.25V35a.36.36,0,0,1-.33.36h-8.3a.44.44,0,0,1-.4-.36Zm0,15c0-.18.21-.25.4-.25H273c.19,0,.28.07.28.25V50c0,.16-.08.36-.28.36H258.72a.44.44,0,0,1-.4-.36Zm18.75,8.77c0,.16-.08.36-.28.36H258.72a.44.44,0,0,1-.4-.36V56.2c0-.18.21-.25.4-.25h18.07c.19,0,.28.07.28.25v1.27Zm3.75-15c0,.16-.08.36-.28.36H258.72a.44.44,0,0,1-.4-.36V41.2c0-.18.21-.25.4-.25h21.82c.19,0,.28.07.28.25v1.27Zm-5.5-8.89a1.37,1.37,0,0,1-1.3-1.32V24.51l8.34,9.06Z"/><path class="cls-1" d="M488,27.13l-12.25-8.24a1.57,1.57,0,0,0-1.76,0l-11.38,7.64-11.38-7.64a1.58,1.58,0,0,0-1.77,0l-12.3,8.24a2,2,0,0,0-.86,1.65V61.7a2,2,0,0,0,.9,1.67,1.59,1.59,0,0,0,1.75,0l11.39-7.64,11.39,7.64a1.57,1.57,0,0,0,1.77,0l11.39-7.64,11.38,7.64a1.58,1.58,0,0,0,.88.28,1.53,1.53,0,0,0,.82-.25,2,2,0,0,0,.84-1.67V28.78A1.94,1.94,0,0,0,488,27.13ZM448.39,52.52l-8.32,5.79V30l8.32-5.79Zm3.75-.06V38.08l.4.27,1.09-1.52a11,11,0,0,0-1.49-.9V24.13l8.55,5.74V42.6a9.11,9.11,0,0,1-1.86-.9l-1,1.59a10.89,10.89,0,0,0,2.43,1.14l.43-1.32V58.2Zm12.3,5.74V44.92h.12c.34,0,.68-.06,1-.11l-.29-1.85c-.27,0-.54.07-.83.09V29.87L473,24.13V38.05l-.57-.51-1,1.14-.63.71,1.4,1.24.64-.73.16-.18V52.46Zm20.62,0-8.32-5.68v-16a6.35,6.35,0,0,1,1.36-.44l-.37-1.84a8.11,8.11,0,0,0-1,.27V24.18l8.32,5.68V58.19Z"/><path class="cls-1" d="M447.72,37c.26-.14-.16-.13.12-.22L447.26,35a6.75,6.75,0,0,0-1.12.48,6.61,6.61,0,0,0-1.33,1l1.28,1.37A10.49,10.49,0,0,1,447.72,37Z"/><path class="cls-1" d="M467.35,42.31l.82,1.69a9.86,9.86,0,0,0,2.24-1.52l-1.24-1.4A8,8,0,0,1,467.35,42.31Z"/><path class="cls-1" d="M444.21,41.12a6.79,6.79,0,0,1,.84-1.91l-1.55-1.06a8.5,8.5,0,0,0-1.07,2.4l0,.09,1.79.57Z"/><path class="cls-1" d="M455.81,39l-.36-.42L454,39.78l.34.41a17.25,17.25,0,0,0,1.36,1.5L457,40.33A15.59,15.59,0,0,1,455.81,39Z"/><polygon class="cls-1" points="480.4 38.04 481.61 36.83 482.82 38.04 484.15 36.71 482.94 35.5 484.15 34.29 482.82 32.96 481.61 34.17 480.4 32.96 479.07 34.29 480.29 35.5 479.07 36.71 480.4 38.04"/><path class="cls-1" d="M667.75,34.19a14.47,14.47,0,0,0-28.93,0,14.56,14.56,0,0,0,3,8.34h0A51.19,51.19,0,0,1,645,47.06a14.92,14.92,0,0,1,1.88,8.2v.14h3.21V42.54l-3.21-6.43h1.67l3.15,6.43V55.39h3.21V42.54l3.15-6.43h1.66l-3.21,6.43V55.39h3.21v-.14a14.49,14.49,0,0,1,1.85-8.2,51.19,51.19,0,0,1,3.16-4.52h0A14.57,14.57,0,0,0,667.75,34.19Z"/><rect class="cls-1" x="650.07" y="63.43" width="6.43" height="1.61"/><rect class="cls-1" x="648.46" y="60.21" width="9.64" height="1.61"/><rect class="cls-1" x="648.46" y="57" width="9.64" height="1.61"/><rect class="cls-1" x="821.52" y="38.58" width="35.56" height="12.87" transform="translate(214 606.66) rotate(-45)"/><path class="cls-1" d="M862.29,26.86,857.46,22a3.15,3.15,0,0,0-4.45.19l-4.54,4.54,9.1,9.1,4.54-4.54A3.16,3.16,0,0,0,862.29,26.86Z"/><polygon class="cls-1" points="821.34 54.46 818.12 66.19 829.85 62.98 821.34 54.46"/><path class="cls-1" d="M1066.67,20.21h-49.85a1.33,1.33,0,0,0-1.32,1.3V52.65a1.32,1.32,0,0,0,1.32,1.3h49.85a1.33,1.33,0,0,0,1.32-1.3V21.51A1.33,1.33,0,0,0,1066.67,20.21Zm-2.43,30h-45V24h45Z"/><path class="cls-1" d="M1047.2,65.21c3.28-.06,4.86-.46,3.4-1.46s-3.34-1.79-3.4-2.64c0-.43-.2-5.27-.2-5.27h-10.5s-.18,4.84-.2,5.27c-.06.83-1.93,1.62-3.4,2.64s.12,1.41,3.4,1.46Z"/><text class="cls-2" transform="translate(39.19 93.3)">RESEARCH</text><text class="cls-2" transform="translate(220.81 93.3)"><tspan class="cls-3">U</tspan><tspan x="10.08" y="0">SER </tspan><tspan class="cls-4" x="39.34" y="0">S</tspan><tspan class="cls-5" x="47.49" y="0">T</tspan><tspan x="55.6" y="0">ORIES</tspan></text><text class="cls-6" transform="translate(424.87 93.3)">T<tspan class="cls-7" x="7.86" y="0">ASK F</tspan><tspan class="cls-8" x="45.17" y="0">L</tspan><tspan class="cls-9" x="52.45" y="0">O</tspan><tspan class="cls-10" x="62.9" y="0">W</tspan></text><text class="cls-2" transform="translate(616.14 94.15)">IDE<tspan class="cls-11" x="22.27" y="0">A</tspan><tspan class="cls-10" x="30.24" y="0">TION + </tspan><tspan x="-1.42" y="19.2">SKE</tspan><tspan class="cls-12" x="24.58" y="19.2">T</tspan><tspan x="32.69" y="19.2">CHING</tspan></text><text class="cls-2" transform="translate(792.64 93.3)">WIREF<tspan class="cls-3" x="42.02" y="0">R</tspan><tspan class="cls-10" x="51.07" y="0">AMING</tspan></text><text class="cls-2" transform="translate(1014.07 93.3)">FINAL UI</text><line class="cls-13" x1="118.62" y1="42.54" x2="217.14" y2="42.54"/><line class="cls-13" x1="217.99" y1="42.54" x2="208.53" y2="33.07"/><line class="cls-13" x1="217.99" y1="42.54" x2="208.53" y2="52"/><line class="cls-13" x1="700.31" y1="42.69" x2="789.94" y2="42.69"/><line class="cls-13" x1="790.79" y1="42.69" x2="781.33" y2="33.22"/><line class="cls-13" x1="790.79" y1="42.69" x2="781.33" y2="52.15"/><line class="cls-13" x1="700.26" y1="42.69" x2="709.73" y2="33.22"/><line class="cls-13" x1="700.26" y1="42.69" x2="709.73" y2="52.15"/><line class="cls-13" x1="311.77" y1="42.54" x2="410.29" y2="42.54"/><line class="cls-13" x1="410.15" y1="42.54" x2="400.68" y2="33.07"/><line class="cls-13" x1="410.15" y1="42.54" x2="400.68" y2="52"/><line class="cls-13" x1="511.93" y1="42.54" x2="610.45" y2="42.54"/><line class="cls-13" x1="611.31" y1="42.54" x2="601.84" y2="33.07"/><line class="cls-13" x1="611.31" y1="42.54" x2="601.84" y2="52"/><line class="cls-13" x1="900.38" y1="43.7" x2="990.07" y2="43.7"/><line class="cls-13" x1="990.92" y1="43.7" x2="981.46" y2="34.23"/><line class="cls-13" x1="990.92" y1="43.7" x2="981.46" y2="53.17"/><line class="cls-13" x1="899.39" y1="43.7" x2="908.86" y2="34.23"/><line class="cls-13" x1="899.39" y1="43.7" x2="908.86" y2="53.17"/><text class="cls-14" transform="translate(732.57 37.59)">TE<tspan class="cls-15" x="12.64" y="0">S</tspan><tspan x="18.74" y="0">T</tspan></text><text class="cls-14" transform="translate(931.67 37.59)">TE<tspan class="cls-15" x="12.64" y="0">S</tspan><tspan x="18.74" y="0">T</tspan></text><text class="cls-14" transform="translate(727.07 57.61)">REFINE</text><text class="cls-14" transform="translate(926.17 57.61)">REFINE</text></svg>