<?xml version="1.0" encoding="utf-8"?>
<!-- Generator: Adobe Illustrator 24.3.0, SVG Export Plug-In . SVG Version: 6.00 Build 0)  -->
<svg version="1.1" id="Layer_1" xmlns="http://www.w3.org/2000/svg" xmlns:xlink="http://www.w3.org/1999/xlink" x="0px" y="0px"
	 viewBox="0 0 42 59.9" style="enable-background:new 0 0 42 59.9;" xml:space="preserve">
<style type="text/css">
	.st0{fill:#BF0436;}
</style>
<path class="st0" d="M40.2,0H2C0.9,0,0,0.9,0,2v47.8c0,1.1,0.9,2,2,2h8.8V58c0,0.8,0.4,1.5,1.1,1.8c0.7,0.3,1.5,0.2,2.1-0.3l4.7-3.9
	l4.7,3.9c0.4,0.3,0.8,0.4,1.3,0.4c0.3,0,0.6-0.1,0.9-0.2c0.7-0.3,1.1-1,1.1-1.8v-6.2H40c1.1,0,2-0.9,2-2V2C42.2,0.9,41.3,0,40.2,0z
	 M22.8,53.8l-2.7-2.2c-0.7-0.6-1.8-0.6-2.5,0l-2.7,2.2v-7.3c1.2,0.5,2.6,0.7,4,0.7s2.8-0.3,4-0.7L22.8,53.8L22.8,53.8z M18.8,43.2
	c-4.1,0-7.5-3.4-7.5-7.5s3.4-7.5,7.5-7.5s7.5,3.4,7.5,7.5S23,43.2,18.8,43.2z M38.2,47.8H26.8V44c2.2-2.1,3.5-5,3.5-8.3
	c0-6.3-5.2-11.5-11.5-11.5S7.3,29.4,7.3,35.7c0,3.2,1.3,6.2,3.5,8.3v3.8H4V4h34.1L38.2,47.8L38.2,47.8z M9.4,13.9c0-1.1,0.9-2,2-2
	h19.3c1.1,0,2,0.9,2,2s-0.9,2-2,2H11.4C10.3,15.9,9.4,15,9.4,13.9z"/>
</svg>
